<svg width="33" height="33" viewBox="0 0 33 33" fill="none" xmlns="http://www.w3.org/2000/svg">
<path fill-rule="evenodd" clip-rule="evenodd" d="M33 16.5C33 24.4736 25.6121 30.9375 16.5 30.9375C14.8658 30.9397 13.2383 30.7275 11.6593 30.3064C10.4548 30.9169 7.689 32.0884 3.036 32.8515C2.6235 32.9175 2.31 32.4885 2.47294 32.1049C3.20306 30.3806 3.86306 28.083 4.06106 25.9875C1.5345 23.4506 0 20.13 0 16.5C0 8.52638 7.38787 2.0625 16.5 2.0625C25.6121 2.0625 33 8.52638 33 16.5ZM14.8376 13.9549C15.0171 14.2106 15.1738 14.4911 15.3058 14.7819C16.1886 16.7372 16.1164 19.6845 13.3629 22.4256C13.1949 22.5894 12.9706 22.6827 12.7359 22.6866C12.5013 22.6904 12.274 22.6044 12.1007 22.4462C12.0162 22.3696 11.9482 22.2766 11.901 22.1728C11.8539 22.069 11.8284 21.9567 11.8263 21.8427C11.8242 21.7287 11.8454 21.6154 11.8887 21.5099C11.932 21.4045 11.9964 21.309 12.078 21.2293C12.9422 20.3713 13.464 19.5154 13.7466 18.7131C13.1917 19.0534 12.5338 19.2493 11.8284 19.2493C9.84844 19.2493 8.25 17.7107 8.25 15.8132C8.25 13.9157 9.8505 12.375 11.8264 12.375C12.3853 12.375 12.9154 12.4987 13.3856 12.7174L13.4021 12.7256C13.7507 12.87 14.0766 13.101 14.3694 13.3939C14.5448 13.5651 14.7015 13.7527 14.8376 13.9549ZM22.6875 18.7131C22.1327 19.0534 21.4747 19.2493 20.7694 19.2493C18.7935 19.2493 17.1909 17.7107 17.1909 15.8132C17.1909 13.9157 18.7935 12.375 20.7673 12.375C21.3263 12.375 21.8563 12.4987 22.3266 12.7174L22.3431 12.7256C22.6937 12.87 23.0175 13.101 23.3104 13.3939C23.4857 13.5651 23.6424 13.7527 23.7786 13.9549C23.958 14.2106 24.1168 14.4911 24.2488 14.7819C25.1316 16.7372 25.0573 19.6845 22.3059 22.4256C22.1378 22.59 21.913 22.6837 21.6779 22.6876C21.4427 22.6914 21.2151 22.605 21.0416 22.4462C20.9571 22.3696 20.8892 22.2766 20.842 22.1728C20.7948 22.069 20.7693 21.9567 20.7672 21.8427C20.7651 21.7287 20.7863 21.6154 20.8296 21.5099C20.8729 21.4045 20.9373 21.309 21.0189 21.2293C21.8852 20.3713 22.4049 19.5154 22.6896 18.7131H22.6875Z" fill="#E2A026"/>
</svg>
