<svg width="51" height="50" viewBox="0 0 51 50" fill="none" xmlns="http://www.w3.org/2000/svg">
<g clip-path="url(#clip0_7402_983)">
<rect x="9.9707" y="21.1947" width="7.61065" height="9.13955" transform="rotate(90 9.9707 21.1947)" fill="#126734"/>
<rect x="19.27" y="30.7677" width="7.15494" height="11.5355" transform="rotate(-180 19.27 30.7677)" fill="#126734"/>
<path d="M43.7839 21.1947L50.8311 28.8054L21.4141 28.8054L21.4141 21.1947L43.7839 21.1947Z" fill="#126734"/>
<rect x="7.49854" y="35.6631" width="4.37313" height="4.78132" transform="rotate(90 7.49854 35.6631)" fill="#126734"/>
<rect x="12.3633" y="41.1637" width="3.74308" height="6.62837" transform="rotate(-180 12.3633 41.1637)" fill="#126734"/>
<path d="M25.1878 35.6631L28.8745 40.0362L13.4851 40.0362L13.4851 35.6631L25.1878 35.6631Z" fill="#126734"/>
<rect x="15.9966" y="8.51303" width="4.80891" height="5.77496" transform="rotate(90 15.9966 8.51303)" fill="#126734"/>
<rect x="21.8726" y="14.5619" width="4.52096" height="7.28888" transform="rotate(-180 21.8726 14.5619)" fill="#126734"/>
<path d="M37.3621 8.51303L41.8149 13.3219L23.2274 13.3219L23.2274 8.51303L37.3621 8.51303Z" fill="#126734"/>
</g>
<defs>
<clipPath id="clip0_7402_983">
<rect width="50" height="50" fill="white" transform="translate(0.831055)"/>
</clipPath>
</defs>
</svg>
